<mxfile host="app.diagrams.net" modified="2024-05-12T13:39:39.939Z" agent="Mozilla/5.0 (Windows NT 10.0; Win64; x64; rv:125.0) Gecko/20100101 Firefox/125.0" etag="2ZfcpWKtAb2PIcItD3Gu" version="24.4.0" type="device">
  <diagram name="ページ1" id="6O8cq4Rfigk1k-ii5kAo">
    <mxGraphModel dx="2598" dy="735" grid="1" gridSize="10" guides="1" tooltips="1" connect="1" arrows="1" fold="1" page="1" pageScale="1" pageWidth="827" pageHeight="1169" math="0" shadow="0">
      <root>
        <mxCell id="0" />
        <object label="ネットワーク" id="1">
          <mxCell style="locked=1;" parent="0" />
        </object>
        <mxCell id="4jGIObLVKQul48obEb4T-1" value="" style="endArrow=oval;html=1;rounded=0;startArrow=oval;startFill=1;endFill=1;strokeWidth=4;fillColor=#a20025;strokeColor=#6F0000;" parent="1" edge="1">
          <mxGeometry width="50" height="50" relative="1" as="geometry">
            <mxPoint x="-704" y="25" as="sourcePoint" />
            <mxPoint x="616" y="25" as="targetPoint" />
          </mxGeometry>
        </mxCell>
        <mxCell id="4jGIObLVKQul48obEb4T-2" value="10.0.0.0/24" style="text;html=1;align=center;verticalAlign=middle;resizable=0;points=[];autosize=1;strokeColor=none;fillColor=none;" parent="1" vertex="1">
          <mxGeometry x="-791" y="10" width="80" height="30" as="geometry" />
        </mxCell>
        <mxCell id="4jGIObLVKQul48obEb4T-3" value="" style="endArrow=oval;html=1;rounded=0;startArrow=oval;startFill=1;endFill=1;strokeWidth=4;fillColor=#a20025;strokeColor=#1C6EFF;" parent="1" edge="1">
          <mxGeometry width="50" height="50" relative="1" as="geometry">
            <mxPoint x="-704" y="99.5" as="sourcePoint" />
            <mxPoint x="616" y="99.5" as="targetPoint" />
          </mxGeometry>
        </mxCell>
        <mxCell id="4jGIObLVKQul48obEb4T-4" value="172.16.0.0/24" style="text;html=1;align=center;verticalAlign=middle;resizable=0;points=[];autosize=1;strokeColor=none;fillColor=none;" parent="1" vertex="1">
          <mxGeometry x="-807" y="85" width="100" height="30" as="geometry" />
        </mxCell>
        <mxCell id="4jGIObLVKQul48obEb4T-7" value="" style="endArrow=none;html=1;rounded=0;startArrow=none;startFill=0;endFill=0;strokeWidth=4;fillColor=#a20025;strokeColor=#1C6EFF;jumpStyle=arc;" parent="1" edge="1">
          <mxGeometry width="50" height="50" relative="1" as="geometry">
            <mxPoint x="-572" y="100" as="sourcePoint" />
            <mxPoint x="-572" y="180" as="targetPoint" />
          </mxGeometry>
        </mxCell>
        <mxCell id="4jGIObLVKQul48obEb4T-8" value="" style="endArrow=none;html=1;rounded=0;startArrow=none;startFill=0;endFill=0;strokeWidth=4;fillColor=#a20025;strokeColor=#1C6EFF;jumpStyle=arc;" parent="1" edge="1">
          <mxGeometry width="50" height="50" relative="1" as="geometry">
            <mxPoint x="232" y="100" as="sourcePoint" />
            <mxPoint x="232" y="180" as="targetPoint" />
          </mxGeometry>
        </mxCell>
        <mxCell id="M0aNkdqrkt3nQFMPRbw5-3" value="" style="endArrow=oval;html=1;rounded=0;startArrow=oval;startFill=1;endFill=1;strokeWidth=4;fillColor=#a20025;strokeColor=#FF9933;" parent="1" edge="1">
          <mxGeometry width="50" height="50" relative="1" as="geometry">
            <mxPoint x="-704" y="65" as="sourcePoint" />
            <mxPoint x="616" y="65" as="targetPoint" />
          </mxGeometry>
        </mxCell>
        <mxCell id="M0aNkdqrkt3nQFMPRbw5-4" value="192.168.101.0/24" style="text;html=1;align=center;verticalAlign=middle;resizable=0;points=[];autosize=1;strokeColor=none;fillColor=none;" parent="1" vertex="1">
          <mxGeometry x="-827" y="49" width="120" height="30" as="geometry" />
        </mxCell>
        <mxCell id="M0aNkdqrkt3nQFMPRbw5-5" value="" style="endArrow=none;html=1;rounded=0;startArrow=none;startFill=0;endFill=0;strokeWidth=4;fillColor=#a20025;strokeColor=#FF9933;jumpStyle=arc;" parent="1" edge="1">
          <mxGeometry width="50" height="50" relative="1" as="geometry">
            <mxPoint x="-273" y="63" as="sourcePoint" />
            <mxPoint x="-273" y="193" as="targetPoint" />
          </mxGeometry>
        </mxCell>
        <mxCell id="M0aNkdqrkt3nQFMPRbw5-7" value="VXLAN 267" style="text;html=1;align=center;verticalAlign=middle;resizable=0;points=[];autosize=1;strokeColor=none;fillColor=none;" parent="1" vertex="1">
          <mxGeometry x="-707" y="35" width="80" height="30" as="geometry" />
        </mxCell>
        <mxCell id="4jGIObLVKQul48obEb4T-9" value="" style="endArrow=none;html=1;rounded=0;startArrow=none;startFill=0;endFill=0;strokeWidth=4;fillColor=#a20025;strokeColor=#6F0000;jumpStyle=arc;" parent="1" edge="1">
          <mxGeometry width="50" height="50" relative="1" as="geometry">
            <mxPoint x="481" y="26" as="sourcePoint" />
            <mxPoint x="481" y="180" as="targetPoint" />
          </mxGeometry>
        </mxCell>
        <mxCell id="4jGIObLVKQul48obEb4T-10" value="" style="endArrow=none;html=1;rounded=0;startArrow=none;startFill=0;endFill=0;strokeWidth=4;fillColor=#a20025;strokeColor=#6F0000;jumpStyle=arc;" parent="1" edge="1">
          <mxGeometry width="50" height="50" relative="1" as="geometry">
            <mxPoint x="-24" y="24" as="sourcePoint" />
            <mxPoint x="-24" y="180" as="targetPoint" />
          </mxGeometry>
        </mxCell>
        <object label="マシン" id="ExSx5SIZApUU_Iw7rpWn-6">
          <mxCell style="locked=1;" parent="0" />
        </object>
        <mxCell id="4jGIObLVKQul48obEb4T-24" value="" style="rounded=1;whiteSpace=wrap;html=1;fillColor=#dae8fc;strokeColor=#6c8ebf;" parent="ExSx5SIZApUU_Iw7rpWn-6" vertex="1">
          <mxGeometry x="-667" y="190" width="1240" height="330" as="geometry" />
        </mxCell>
        <mxCell id="4jGIObLVKQul48obEb4T-25" value="eth1" style="rounded=0;whiteSpace=wrap;html=1;fillColor=#e3c800;fontColor=#000000;strokeColor=#B09500;" parent="ExSx5SIZApUU_Iw7rpWn-6" vertex="1">
          <mxGeometry x="-65" y="180" width="80" height="20" as="geometry" />
        </mxCell>
        <mxCell id="4jGIObLVKQul48obEb4T-26" value="eth0" style="rounded=0;whiteSpace=wrap;html=1;fillColor=#e3c800;fontColor=#000000;strokeColor=#B09500;" parent="ExSx5SIZApUU_Iw7rpWn-6" vertex="1">
          <mxGeometry x="-614" y="180" width="80" height="20" as="geometry" />
        </mxCell>
        <mxCell id="4jGIObLVKQul48obEb4T-27" value="172.16.0.11" style="text;html=1;align=center;verticalAlign=middle;resizable=0;points=[];autosize=1;strokeColor=none;fillColor=none;" parent="ExSx5SIZApUU_Iw7rpWn-6" vertex="1">
          <mxGeometry x="-664" y="150" width="90" height="30" as="geometry" />
        </mxCell>
        <mxCell id="4jGIObLVKQul48obEb4T-28" value="vxlan-267" style="rounded=0;whiteSpace=wrap;html=1;fillColor=#e3c800;fontColor=#000000;strokeColor=#B09500;" parent="ExSx5SIZApUU_Iw7rpWn-6" vertex="1">
          <mxGeometry x="-314" y="180" width="80" height="20" as="geometry" />
        </mxCell>
        <mxCell id="4jGIObLVKQul48obEb4T-29" value="&lt;div&gt;eth3&lt;/div&gt;" style="rounded=0;whiteSpace=wrap;html=1;fillColor=#e3c800;fontColor=#000000;strokeColor=#B09500;" parent="ExSx5SIZApUU_Iw7rpWn-6" vertex="1">
          <mxGeometry x="440" y="180" width="80" height="20" as="geometry" />
        </mxCell>
        <mxCell id="4jGIObLVKQul48obEb4T-30" value="10.0.0.11" style="text;html=1;align=center;verticalAlign=middle;resizable=0;points=[];autosize=1;strokeColor=none;fillColor=none;" parent="ExSx5SIZApUU_Iw7rpWn-6" vertex="1">
          <mxGeometry x="-95" y="150" width="70" height="30" as="geometry" />
        </mxCell>
        <mxCell id="21zLahzKs5m0MUraH8DA-1" value="&lt;font style=&quot;font-size: 17px;&quot;&gt;Controller Node&lt;/font&gt;" style="text;html=1;align=center;verticalAlign=middle;resizable=0;points=[];autosize=1;strokeColor=none;fillColor=none;" parent="ExSx5SIZApUU_Iw7rpWn-6" vertex="1">
          <mxGeometry x="396" y="480" width="140" height="30" as="geometry" />
        </mxCell>
        <mxCell id="21zLahzKs5m0MUraH8DA-2" value="brqc08e7dcd-4a" style="rounded=0;whiteSpace=wrap;html=1;fillColor=#B39D00;fontColor=#000000;strokeColor=#B09500;" parent="ExSx5SIZApUU_Iw7rpWn-6" vertex="1">
          <mxGeometry x="-349" y="225" width="150" height="40" as="geometry" />
        </mxCell>
        <mxCell id="21zLahzKs5m0MUraH8DA-6" value="tapd8316879-dd" style="rounded=0;whiteSpace=wrap;html=1;fillColor=#e3c800;fontColor=#000000;strokeColor=#B09500;" parent="ExSx5SIZApUU_Iw7rpWn-6" vertex="1">
          <mxGeometry x="-329" y="286" width="110" height="20" as="geometry" />
        </mxCell>
        <mxCell id="4jGIObLVKQul48obEb4T-32" value="" style="endArrow=none;html=1;rounded=0;startArrow=none;startFill=0;endFill=0;strokeWidth=4;fillColor=#a20025;strokeColor=#FF9933;jumpStyle=arc;entryX=0.5;entryY=0;entryDx=0;entryDy=0;exitX=0.5;exitY=1;exitDx=0;exitDy=0;" parent="ExSx5SIZApUU_Iw7rpWn-6" source="4jGIObLVKQul48obEb4T-28" target="21zLahzKs5m0MUraH8DA-2" edge="1">
          <mxGeometry width="50" height="50" relative="1" as="geometry">
            <mxPoint x="-263" y="110" as="sourcePoint" />
            <mxPoint x="-263" y="190" as="targetPoint" />
          </mxGeometry>
        </mxCell>
        <mxCell id="4jGIObLVKQul48obEb4T-33" value="" style="endArrow=none;html=1;rounded=0;startArrow=none;startFill=0;endFill=0;strokeWidth=4;fillColor=#a20025;strokeColor=#FF9933;jumpStyle=arc;entryX=0.5;entryY=0;entryDx=0;entryDy=0;exitX=0.5;exitY=1;exitDx=0;exitDy=0;" parent="ExSx5SIZApUU_Iw7rpWn-6" source="21zLahzKs5m0MUraH8DA-2" target="21zLahzKs5m0MUraH8DA-6" edge="1">
          <mxGeometry width="50" height="50" relative="1" as="geometry">
            <mxPoint x="-264" y="210" as="sourcePoint" />
            <mxPoint x="-264" y="235" as="targetPoint" />
          </mxGeometry>
        </mxCell>
        <mxCell id="4jGIObLVKQul48obEb4T-34" value="" style="endArrow=none;html=1;rounded=0;startArrow=none;startFill=0;endFill=0;strokeWidth=4;fillColor=#a20025;strokeColor=#FF9933;jumpStyle=arc;exitX=0.5;exitY=1;exitDx=0;exitDy=0;" parent="ExSx5SIZApUU_Iw7rpWn-6" edge="1">
          <mxGeometry width="50" height="50" relative="1" as="geometry">
            <mxPoint x="-274" y="306" as="sourcePoint" />
            <mxPoint x="-274" y="330" as="targetPoint" />
          </mxGeometry>
        </mxCell>
        <mxCell id="M0aNkdqrkt3nQFMPRbw5-1" value="eth2" style="rounded=0;whiteSpace=wrap;html=1;fillColor=#e3c800;fontColor=#000000;strokeColor=#B09500;" parent="ExSx5SIZApUU_Iw7rpWn-6" vertex="1">
          <mxGeometry x="192" y="180" width="80" height="20" as="geometry" />
        </mxCell>
        <mxCell id="4lIEDscR55tSprHe2tTV-1" value="" style="endArrow=none;html=1;rounded=0;startArrow=none;startFill=0;endFill=0;strokeWidth=4;fillColor=#a20025;strokeColor=#1C6EFF;jumpStyle=arc;exitX=1;exitY=0.5;exitDx=0;exitDy=0;entryX=0;entryY=0.5;entryDx=0;entryDy=0;dashed=1;dashPattern=1 1;" parent="ExSx5SIZApUU_Iw7rpWn-6" source="4jGIObLVKQul48obEb4T-26" target="4jGIObLVKQul48obEb4T-28" edge="1">
          <mxGeometry width="50" height="50" relative="1" as="geometry">
            <mxPoint x="384" y="110" as="sourcePoint" />
            <mxPoint x="-160" y="180" as="targetPoint" />
          </mxGeometry>
        </mxCell>
        <mxCell id="IWEcDPWFtIaI0_PRs9Bo-3" value="brq83a19a08-f0" style="rounded=0;whiteSpace=wrap;html=1;fillColor=#B39D00;fontColor=#000000;strokeColor=#B09500;" vertex="1" parent="ExSx5SIZApUU_Iw7rpWn-6">
          <mxGeometry x="157" y="225" width="150" height="40" as="geometry" />
        </mxCell>
        <mxCell id="IWEcDPWFtIaI0_PRs9Bo-4" value="tapd8a9d7f6-47" style="rounded=0;whiteSpace=wrap;html=1;fillColor=#e3c800;fontColor=#000000;strokeColor=#B09500;" vertex="1" parent="ExSx5SIZApUU_Iw7rpWn-6">
          <mxGeometry x="177" y="286" width="110" height="20" as="geometry" />
        </mxCell>
        <mxCell id="IWEcDPWFtIaI0_PRs9Bo-5" value="" style="endArrow=none;html=1;rounded=0;startArrow=none;startFill=0;endFill=0;strokeWidth=4;fillColor=#a20025;strokeColor=#FF9933;jumpStyle=arc;exitX=0.5;exitY=1;exitDx=0;exitDy=0;entryX=0.725;entryY=0.455;entryDx=0;entryDy=0;entryPerimeter=0;" edge="1" parent="ExSx5SIZApUU_Iw7rpWn-6" source="IWEcDPWFtIaI0_PRs9Bo-4" target="4jGIObLVKQul48obEb4T-24">
          <mxGeometry width="50" height="50" relative="1" as="geometry">
            <mxPoint x="-264" y="316" as="sourcePoint" />
            <mxPoint x="-264" y="340" as="targetPoint" />
          </mxGeometry>
        </mxCell>
        <mxCell id="IWEcDPWFtIaI0_PRs9Bo-6" value="" style="endArrow=none;html=1;rounded=0;startArrow=none;startFill=0;endFill=0;strokeWidth=4;fillColor=#a20025;strokeColor=#FF9933;jumpStyle=arc;exitX=0.5;exitY=1;exitDx=0;exitDy=0;entryX=0.5;entryY=0;entryDx=0;entryDy=0;" edge="1" parent="ExSx5SIZApUU_Iw7rpWn-6" source="IWEcDPWFtIaI0_PRs9Bo-3" target="IWEcDPWFtIaI0_PRs9Bo-4">
          <mxGeometry width="50" height="50" relative="1" as="geometry">
            <mxPoint x="242" y="316" as="sourcePoint" />
            <mxPoint x="242" y="350" as="targetPoint" />
          </mxGeometry>
        </mxCell>
        <mxCell id="IWEcDPWFtIaI0_PRs9Bo-7" value="" style="endArrow=none;html=1;rounded=0;startArrow=none;startFill=0;endFill=0;strokeWidth=4;fillColor=#a20025;strokeColor=#FF9933;jumpStyle=arc;exitX=0.5;exitY=1;exitDx=0;exitDy=0;entryX=0.5;entryY=0;entryDx=0;entryDy=0;" edge="1" parent="ExSx5SIZApUU_Iw7rpWn-6" source="M0aNkdqrkt3nQFMPRbw5-1" target="IWEcDPWFtIaI0_PRs9Bo-3">
          <mxGeometry width="50" height="50" relative="1" as="geometry">
            <mxPoint x="242" y="275" as="sourcePoint" />
            <mxPoint x="242" y="296" as="targetPoint" />
          </mxGeometry>
        </mxCell>
        <object label="ルータ" id="21zLahzKs5m0MUraH8DA-9">
          <mxCell style="locked=1;" parent="0" />
        </object>
        <mxCell id="21zLahzKs5m0MUraH8DA-10" value="" style="rounded=1;whiteSpace=wrap;html=1;fillColor=#b8d2fa;strokeColor=#6c8ebf;align=center;horizontal=1;" parent="21zLahzKs5m0MUraH8DA-9" vertex="1">
          <mxGeometry x="-584" y="330" width="1090" height="140" as="geometry" />
        </mxCell>
        <mxCell id="21zLahzKs5m0MUraH8DA-11" value="&lt;font style=&quot;font-size: 17px;&quot;&gt;qrouter-fa9a921e-7ff6-4468-a08b-5415cebeb089&lt;/font&gt;" style="text;html=1;align=center;verticalAlign=middle;resizable=0;points=[];autosize=1;strokeColor=none;fillColor=none;" parent="21zLahzKs5m0MUraH8DA-9" vertex="1">
          <mxGeometry x="96" y="430" width="390" height="30" as="geometry" />
        </mxCell>
        <mxCell id="21zLahzKs5m0MUraH8DA-14" value="192.168.101.254" style="text;html=1;align=center;verticalAlign=middle;resizable=0;points=[];autosize=1;strokeColor=none;fillColor=none;" parent="21zLahzKs5m0MUraH8DA-9" vertex="1">
          <mxGeometry x="-225" y="330" width="120" height="30" as="geometry" />
        </mxCell>
        <mxCell id="21zLahzKs5m0MUraH8DA-15" value="Router" style="rounded=1;whiteSpace=wrap;html=1;fillColor=#3f86f1;strokeColor=#6c8ebf;align=center;horizontal=1;" parent="21zLahzKs5m0MUraH8DA-9" vertex="1">
          <mxGeometry x="-394" y="370" width="730" height="50" as="geometry" />
        </mxCell>
        <mxCell id="21zLahzKs5m0MUraH8DA-12" value="qr-d8316879-dd" style="rounded=0;whiteSpace=wrap;html=1;fillColor=#e3c800;fontColor=#000000;strokeColor=#B09500;" parent="21zLahzKs5m0MUraH8DA-9" vertex="1">
          <mxGeometry x="-330" y="330" width="110" height="20" as="geometry" />
        </mxCell>
        <mxCell id="IWEcDPWFtIaI0_PRs9Bo-1" value="172.16.0.131" style="text;html=1;align=center;verticalAlign=middle;resizable=0;points=[];autosize=1;strokeColor=none;fillColor=none;" vertex="1" parent="21zLahzKs5m0MUraH8DA-9">
          <mxGeometry x="286.5" y="330" width="100" height="30" as="geometry" />
        </mxCell>
        <mxCell id="IWEcDPWFtIaI0_PRs9Bo-2" value="qg-d8a9d7f6-47" style="rounded=0;whiteSpace=wrap;html=1;fillColor=#e3c800;fontColor=#000000;strokeColor=#B09500;" vertex="1" parent="21zLahzKs5m0MUraH8DA-9">
          <mxGeometry x="178.5" y="330" width="110" height="20" as="geometry" />
        </mxCell>
      </root>
    </mxGraphModel>
  </diagram>
</mxfile>
